<?xml version="1.0" encoding="UTF-8"?>
<svg id="Layer_2" data-name="Layer 2" xmlns="http://www.w3.org/2000/svg" viewBox="0 0 83.49 95.13">
  <defs>
    <style>
      .cls-1 {
        fill: #fff;
      }
    </style>
  </defs>
  <g id="Layer_1-2" data-name="Layer 1">
    <g>
      <path class="cls-1" d="M21.6,81.59l10.86-5.98c1.28-2.11-1.33-13.41,2.88-12.67l22.93,23.14-15.16-5.11c-7.71,3.3-18.97,13.56-27.1,14.13-8.28.57-14.66-4.78-15.41-13.1-1.9-21.31,1.34-45.6.2-67.22C3.2,6.12,13.96.21,21.6,6.36v75.22Z"/>
      <path class="cls-1" d="M32.83,0l9.02,17.55c8.4,6.59,34.65,16.52,39.52,24.85,8.7,14.87-11.55,23.82-21.86,28.59l-16.15-16.62c.28-1.57,15.02-14.19,17.17-17.31.44-.63,1.04-.74.74-1.87l-9.74-4.91-18.7,18.37V0Z"/>
    </g>
  </g>
</svg>